<mxfile host="app.diagrams.net" modified="2021-09-13T21:41:31.866Z" agent="5.0 (Windows NT 10.0; Win64; x64) AppleWebKit/537.36 (KHTML, like Gecko) Chrome/93.0.4577.63 Safari/537.36" etag="VNMbK6owsgdnmE14aJk3" version="15.2.4" type="github">
  <diagram id="C5RBs43oDa-KdzZeNtuy" name="Page-1">
    <mxGraphModel dx="3101" dy="813" grid="1" gridSize="10" guides="1" tooltips="1" connect="1" arrows="1" fold="1" page="1" pageScale="1" pageWidth="827" pageHeight="1169" math="0" shadow="0">
      <root>
        <mxCell id="WIyWlLk6GJQsqaUBKTNV-0" />
        <mxCell id="WIyWlLk6GJQsqaUBKTNV-1" parent="WIyWlLk6GJQsqaUBKTNV-0" />
        <mxCell id="cgQtGqRzzrTRfIWYsL_Y-0" value="Registrar datos del producto" style="rounded=0;whiteSpace=wrap;html=1;" vertex="1" parent="WIyWlLk6GJQsqaUBKTNV-1">
          <mxGeometry x="-1180" y="100" width="120" height="50" as="geometry" />
        </mxCell>
        <mxCell id="cgQtGqRzzrTRfIWYsL_Y-10" style="edgeStyle=orthogonalEdgeStyle;rounded=0;orthogonalLoop=1;jettySize=auto;html=1;" edge="1" parent="WIyWlLk6GJQsqaUBKTNV-1">
          <mxGeometry relative="1" as="geometry">
            <mxPoint x="-1120.5" y="150" as="sourcePoint" />
            <mxPoint x="-1120.5" y="200" as="targetPoint" />
          </mxGeometry>
        </mxCell>
        <mxCell id="cgQtGqRzzrTRfIWYsL_Y-18" style="edgeStyle=orthogonalEdgeStyle;rounded=0;orthogonalLoop=1;jettySize=auto;html=1;entryX=1;entryY=0.5;entryDx=0;entryDy=0;" edge="1" parent="WIyWlLk6GJQsqaUBKTNV-1" source="cgQtGqRzzrTRfIWYsL_Y-16" target="cgQtGqRzzrTRfIWYsL_Y-17">
          <mxGeometry relative="1" as="geometry" />
        </mxCell>
        <mxCell id="cgQtGqRzzrTRfIWYsL_Y-23" style="edgeStyle=orthogonalEdgeStyle;rounded=0;orthogonalLoop=1;jettySize=auto;html=1;" edge="1" parent="WIyWlLk6GJQsqaUBKTNV-1" source="cgQtGqRzzrTRfIWYsL_Y-16" target="cgQtGqRzzrTRfIWYsL_Y-22">
          <mxGeometry relative="1" as="geometry" />
        </mxCell>
        <mxCell id="cgQtGqRzzrTRfIWYsL_Y-16" value="¿Hay Espacio?" style="rhombus;whiteSpace=wrap;html=1;" vertex="1" parent="WIyWlLk6GJQsqaUBKTNV-1">
          <mxGeometry x="-1175" y="200" width="110" height="110" as="geometry" />
        </mxCell>
        <mxCell id="cgQtGqRzzrTRfIWYsL_Y-19" style="edgeStyle=orthogonalEdgeStyle;rounded=0;orthogonalLoop=1;jettySize=auto;html=1;" edge="1" parent="WIyWlLk6GJQsqaUBKTNV-1" source="cgQtGqRzzrTRfIWYsL_Y-17">
          <mxGeometry relative="1" as="geometry">
            <mxPoint x="-1320" y="330" as="targetPoint" />
          </mxGeometry>
        </mxCell>
        <mxCell id="cgQtGqRzzrTRfIWYsL_Y-17" value="Se saca el producto antiguo" style="whiteSpace=wrap;html=1;" vertex="1" parent="WIyWlLk6GJQsqaUBKTNV-1">
          <mxGeometry x="-1380" y="225" width="120" height="60" as="geometry" />
        </mxCell>
        <mxCell id="cgQtGqRzzrTRfIWYsL_Y-20" value="No" style="text;html=1;align=center;verticalAlign=middle;resizable=0;points=[];autosize=1;strokeColor=none;fillColor=none;" vertex="1" parent="WIyWlLk6GJQsqaUBKTNV-1">
          <mxGeometry x="-1235" y="230" width="30" height="20" as="geometry" />
        </mxCell>
        <mxCell id="cgQtGqRzzrTRfIWYsL_Y-21" value="Si" style="text;html=1;align=center;verticalAlign=middle;resizable=0;points=[];autosize=1;strokeColor=none;fillColor=none;" vertex="1" parent="WIyWlLk6GJQsqaUBKTNV-1">
          <mxGeometry x="-1050" y="230" width="30" height="20" as="geometry" />
        </mxCell>
        <mxCell id="cgQtGqRzzrTRfIWYsL_Y-25" style="edgeStyle=orthogonalEdgeStyle;rounded=0;orthogonalLoop=1;jettySize=auto;html=1;" edge="1" parent="WIyWlLk6GJQsqaUBKTNV-1" source="cgQtGqRzzrTRfIWYsL_Y-22">
          <mxGeometry relative="1" as="geometry">
            <mxPoint x="-926" y="350" as="targetPoint" />
          </mxGeometry>
        </mxCell>
        <mxCell id="cgQtGqRzzrTRfIWYsL_Y-22" value="Guardar" style="whiteSpace=wrap;html=1;" vertex="1" parent="WIyWlLk6GJQsqaUBKTNV-1">
          <mxGeometry x="-986" y="225" width="120" height="60" as="geometry" />
        </mxCell>
        <mxCell id="cgQtGqRzzrTRfIWYsL_Y-24" value="Producto Nuevo" style="whiteSpace=wrap;html=1;" vertex="1" parent="WIyWlLk6GJQsqaUBKTNV-1">
          <mxGeometry x="-986" y="350" width="120" height="60" as="geometry" />
        </mxCell>
        <mxCell id="cgQtGqRzzrTRfIWYsL_Y-32" style="edgeStyle=orthogonalEdgeStyle;rounded=0;orthogonalLoop=1;jettySize=auto;html=1;entryX=0.5;entryY=0;entryDx=0;entryDy=0;" edge="1" parent="WIyWlLk6GJQsqaUBKTNV-1" source="cgQtGqRzzrTRfIWYsL_Y-30" target="cgQtGqRzzrTRfIWYsL_Y-31">
          <mxGeometry relative="1" as="geometry" />
        </mxCell>
        <mxCell id="cgQtGqRzzrTRfIWYsL_Y-30" value="Guardar el producto nuevo" style="whiteSpace=wrap;html=1;" vertex="1" parent="WIyWlLk6GJQsqaUBKTNV-1">
          <mxGeometry x="-1380" y="330" width="120" height="60" as="geometry" />
        </mxCell>
        <mxCell id="cgQtGqRzzrTRfIWYsL_Y-31" value="El producto antiguo se vende" style="whiteSpace=wrap;html=1;" vertex="1" parent="WIyWlLk6GJQsqaUBKTNV-1">
          <mxGeometry x="-1380" y="430" width="120" height="60" as="geometry" />
        </mxCell>
        <mxCell id="cgQtGqRzzrTRfIWYsL_Y-70" style="edgeStyle=orthogonalEdgeStyle;rounded=0;orthogonalLoop=1;jettySize=auto;html=1;entryX=0.5;entryY=0;entryDx=0;entryDy=0;" edge="1" parent="WIyWlLk6GJQsqaUBKTNV-1" source="cgQtGqRzzrTRfIWYsL_Y-41" target="cgQtGqRzzrTRfIWYsL_Y-0">
          <mxGeometry relative="1" as="geometry" />
        </mxCell>
        <mxCell id="cgQtGqRzzrTRfIWYsL_Y-41" value="Inicio" style="ellipse;whiteSpace=wrap;html=1;" vertex="1" parent="WIyWlLk6GJQsqaUBKTNV-1">
          <mxGeometry x="-1180" y="10" width="120" height="45" as="geometry" />
        </mxCell>
        <mxCell id="cgQtGqRzzrTRfIWYsL_Y-47" style="edgeStyle=orthogonalEdgeStyle;rounded=0;orthogonalLoop=1;jettySize=auto;html=1;exitX=0.5;exitY=1;exitDx=0;exitDy=0;" edge="1" parent="WIyWlLk6GJQsqaUBKTNV-1" source="cgQtGqRzzrTRfIWYsL_Y-31" target="cgQtGqRzzrTRfIWYsL_Y-46">
          <mxGeometry relative="1" as="geometry">
            <mxPoint x="-1320" y="520" as="sourcePoint" />
          </mxGeometry>
        </mxCell>
        <mxCell id="cgQtGqRzzrTRfIWYsL_Y-49" style="edgeStyle=orthogonalEdgeStyle;rounded=0;orthogonalLoop=1;jettySize=auto;html=1;entryX=0.5;entryY=0;entryDx=0;entryDy=0;" edge="1" parent="WIyWlLk6GJQsqaUBKTNV-1" source="cgQtGqRzzrTRfIWYsL_Y-46" target="cgQtGqRzzrTRfIWYsL_Y-48">
          <mxGeometry relative="1" as="geometry" />
        </mxCell>
        <mxCell id="cgQtGqRzzrTRfIWYsL_Y-46" value="Cliente" style="rounded=1;whiteSpace=wrap;html=1;" vertex="1" parent="WIyWlLk6GJQsqaUBKTNV-1">
          <mxGeometry x="-1380" y="530" width="120" height="35" as="geometry" />
        </mxCell>
        <mxCell id="cgQtGqRzzrTRfIWYsL_Y-51" style="edgeStyle=orthogonalEdgeStyle;rounded=0;orthogonalLoop=1;jettySize=auto;html=1;entryX=0.5;entryY=0;entryDx=0;entryDy=0;" edge="1" parent="WIyWlLk6GJQsqaUBKTNV-1" source="cgQtGqRzzrTRfIWYsL_Y-48" target="cgQtGqRzzrTRfIWYsL_Y-50">
          <mxGeometry relative="1" as="geometry" />
        </mxCell>
        <mxCell id="cgQtGqRzzrTRfIWYsL_Y-48" value="Elige producto(s)" style="rounded=0;whiteSpace=wrap;html=1;" vertex="1" parent="WIyWlLk6GJQsqaUBKTNV-1">
          <mxGeometry x="-1380" y="610" width="120" height="45" as="geometry" />
        </mxCell>
        <mxCell id="cgQtGqRzzrTRfIWYsL_Y-53" style="edgeStyle=orthogonalEdgeStyle;rounded=0;orthogonalLoop=1;jettySize=auto;html=1;entryX=0.5;entryY=0;entryDx=0;entryDy=0;exitX=0.5;exitY=1;exitDx=0;exitDy=0;" edge="1" parent="WIyWlLk6GJQsqaUBKTNV-1" source="cgQtGqRzzrTRfIWYsL_Y-50" target="cgQtGqRzzrTRfIWYsL_Y-52">
          <mxGeometry relative="1" as="geometry" />
        </mxCell>
        <mxCell id="cgQtGqRzzrTRfIWYsL_Y-50" value="Realiza el pago" style="rounded=0;whiteSpace=wrap;html=1;" vertex="1" parent="WIyWlLk6GJQsqaUBKTNV-1">
          <mxGeometry x="-1380" y="700" width="120" height="45" as="geometry" />
        </mxCell>
        <mxCell id="cgQtGqRzzrTRfIWYsL_Y-54" style="edgeStyle=orthogonalEdgeStyle;rounded=0;orthogonalLoop=1;jettySize=auto;html=1;entryX=0.5;entryY=0;entryDx=0;entryDy=0;" edge="1" parent="WIyWlLk6GJQsqaUBKTNV-1" source="cgQtGqRzzrTRfIWYsL_Y-52" target="cgQtGqRzzrTRfIWYsL_Y-56">
          <mxGeometry relative="1" as="geometry">
            <mxPoint x="-815" y="890" as="targetPoint" />
          </mxGeometry>
        </mxCell>
        <mxCell id="cgQtGqRzzrTRfIWYsL_Y-58" style="edgeStyle=orthogonalEdgeStyle;rounded=0;orthogonalLoop=1;jettySize=auto;html=1;entryX=0.5;entryY=0;entryDx=0;entryDy=0;" edge="1" parent="WIyWlLk6GJQsqaUBKTNV-1" source="cgQtGqRzzrTRfIWYsL_Y-52" target="cgQtGqRzzrTRfIWYsL_Y-57">
          <mxGeometry relative="1" as="geometry" />
        </mxCell>
        <mxCell id="cgQtGqRzzrTRfIWYsL_Y-52" value="¿Quiere Factura?" style="rhombus;whiteSpace=wrap;html=1;" vertex="1" parent="WIyWlLk6GJQsqaUBKTNV-1">
          <mxGeometry x="-1387.5" y="800" width="135" height="110" as="geometry" />
        </mxCell>
        <mxCell id="cgQtGqRzzrTRfIWYsL_Y-55" value="No" style="text;html=1;align=center;verticalAlign=middle;resizable=0;points=[];autosize=1;strokeColor=none;fillColor=none;" vertex="1" parent="WIyWlLk6GJQsqaUBKTNV-1">
          <mxGeometry x="-1465" y="830" width="30" height="20" as="geometry" />
        </mxCell>
        <mxCell id="cgQtGqRzzrTRfIWYsL_Y-64" style="edgeStyle=orthogonalEdgeStyle;rounded=0;orthogonalLoop=1;jettySize=auto;html=1;entryX=0;entryY=0.5;entryDx=0;entryDy=0;exitX=0.5;exitY=1;exitDx=0;exitDy=0;" edge="1" parent="WIyWlLk6GJQsqaUBKTNV-1" source="cgQtGqRzzrTRfIWYsL_Y-56" target="cgQtGqRzzrTRfIWYsL_Y-63">
          <mxGeometry relative="1" as="geometry" />
        </mxCell>
        <mxCell id="cgQtGqRzzrTRfIWYsL_Y-56" value="Imprimir ticket" style="rounded=0;whiteSpace=wrap;html=1;" vertex="1" parent="WIyWlLk6GJQsqaUBKTNV-1">
          <mxGeometry x="-1535" y="890" width="120" height="40" as="geometry" />
        </mxCell>
        <mxCell id="cgQtGqRzzrTRfIWYsL_Y-66" style="edgeStyle=orthogonalEdgeStyle;rounded=0;orthogonalLoop=1;jettySize=auto;html=1;" edge="1" parent="WIyWlLk6GJQsqaUBKTNV-1" source="cgQtGqRzzrTRfIWYsL_Y-57" target="cgQtGqRzzrTRfIWYsL_Y-60">
          <mxGeometry relative="1" as="geometry" />
        </mxCell>
        <mxCell id="cgQtGqRzzrTRfIWYsL_Y-57" value="Pedir Datos" style="rounded=0;whiteSpace=wrap;html=1;" vertex="1" parent="WIyWlLk6GJQsqaUBKTNV-1">
          <mxGeometry x="-1180" y="890" width="125" height="40" as="geometry" />
        </mxCell>
        <mxCell id="cgQtGqRzzrTRfIWYsL_Y-59" value="Si" style="text;html=1;align=center;verticalAlign=middle;resizable=0;points=[];autosize=1;strokeColor=none;fillColor=none;" vertex="1" parent="WIyWlLk6GJQsqaUBKTNV-1">
          <mxGeometry x="-1200" y="830" width="30" height="20" as="geometry" />
        </mxCell>
        <mxCell id="cgQtGqRzzrTRfIWYsL_Y-67" style="edgeStyle=orthogonalEdgeStyle;rounded=0;orthogonalLoop=1;jettySize=auto;html=1;" edge="1" parent="WIyWlLk6GJQsqaUBKTNV-1" source="cgQtGqRzzrTRfIWYsL_Y-60">
          <mxGeometry relative="1" as="geometry">
            <mxPoint x="-1265" y="1010" as="targetPoint" />
          </mxGeometry>
        </mxCell>
        <mxCell id="cgQtGqRzzrTRfIWYsL_Y-60" value="Imprimir Factura" style="rounded=0;whiteSpace=wrap;html=1;" vertex="1" parent="WIyWlLk6GJQsqaUBKTNV-1">
          <mxGeometry x="-1185" y="990" width="135" height="40" as="geometry" />
        </mxCell>
        <mxCell id="cgQtGqRzzrTRfIWYsL_Y-69" style="edgeStyle=orthogonalEdgeStyle;rounded=0;orthogonalLoop=1;jettySize=auto;html=1;entryX=0.5;entryY=0;entryDx=0;entryDy=0;" edge="1" parent="WIyWlLk6GJQsqaUBKTNV-1" source="cgQtGqRzzrTRfIWYsL_Y-63" target="cgQtGqRzzrTRfIWYsL_Y-68">
          <mxGeometry relative="1" as="geometry" />
        </mxCell>
        <mxCell id="cgQtGqRzzrTRfIWYsL_Y-63" value="Vuelve Pronto" style="rounded=0;whiteSpace=wrap;html=1;" vertex="1" parent="WIyWlLk6GJQsqaUBKTNV-1">
          <mxGeometry x="-1385" y="990" width="120" height="40" as="geometry" />
        </mxCell>
        <mxCell id="cgQtGqRzzrTRfIWYsL_Y-68" value="Fin" style="ellipse;whiteSpace=wrap;html=1;" vertex="1" parent="WIyWlLk6GJQsqaUBKTNV-1">
          <mxGeometry x="-1385" y="1080" width="120" height="45" as="geometry" />
        </mxCell>
      </root>
    </mxGraphModel>
  </diagram>
</mxfile>
